<svg width="150" height="64" viewBox="0 0 150 64" fill="none" xmlns="http://www.w3.org/2000/svg">
<path d="M132.447 38.3175C131.348 39.2198 130.053 39.851 128.665 40.1603C127.278 40.4695 125.837 40.4481 124.459 40.0977C122.816 39.6924 121.345 38.7699 120.265 37.466C119.185 36.1621 118.552 34.5457 118.459 32.8549C118.376 30.3717 118.459 27.8885 118.418 25.3634C118.418 24.5357 118.79 23.9985 119.66 23.9985C120.529 23.9985 120.86 24.5776 120.86 25.4054C120.901 27.599 120.86 29.7926 120.901 31.9862C120.942 36.4154 124.708 38.9814 128.888 37.5736C129.967 37.212 130.902 36.515 131.557 35.5842C132.213 34.6534 132.553 33.5376 132.53 32.3996C132.57 30.2888 132.57 28.219 132.57 26.1493C132.543 25.8177 132.557 25.484 132.611 25.1558C132.611 25.0018 132.642 24.8494 132.704 24.7082C132.765 24.5669 132.855 24.4399 132.967 24.3349C133.08 24.23 133.213 24.1495 133.358 24.0985C133.504 24.0475 133.658 24.0271 133.811 24.0385C133.979 24.0273 134.147 24.0536 134.303 24.1153C134.46 24.1771 134.6 24.2728 134.715 24.3956C134.83 24.5184 134.916 24.6651 134.967 24.8253C135.019 24.9854 135.034 25.1549 135.011 25.3215V30.7022C135.011 33.9302 135.177 37.1592 134.97 40.3873C134.515 47.1748 127.894 49.1617 123.424 47.3824C122.72 47.09 122.182 46.5957 122.473 45.768C122.763 44.9402 123.507 44.8164 124.294 45.106C128.474 46.6785 133.234 44.2363 132.447 38.3175Z" fill="#F15C22"/>
<path d="M30.1079 38.6902C30.1445 38.919 30.1032 39.1536 29.9906 39.3562C29.878 39.5588 29.7006 39.7177 29.4869 39.8074C29.2325 39.9366 28.9413 39.9741 28.6624 39.9137C28.3835 39.8534 28.1339 39.6988 27.9556 39.476L23.652 34.924C22.7006 33.8896 22.4521 33.8896 21.4997 34.924C20.5474 35.9584 18.8922 37.6538 17.6514 39.0626C17.0304 39.7246 16.3686 40.4275 15.4581 39.6417C14.5477 38.8559 15.1657 38.1101 15.8305 37.4481C17.2371 35.9165 18.6446 34.3848 20.0931 32.8951C20.7141 32.2331 20.755 31.7778 20.1341 31.1149C18.6027 29.5842 17.1503 27.9707 15.6648 26.3562C15.0858 25.7352 14.6715 25.0732 15.4581 24.3693C16.2448 23.6654 16.8647 24.1207 17.4856 24.7417C18.8503 26.2314 20.2998 27.7221 21.6654 29.2537C22.3692 29.9986 22.8654 29.9576 23.5691 29.2128C24.9338 27.6811 26.3414 26.1905 27.7489 24.7008C28.3699 24.0797 29.0317 23.6663 29.7764 24.3693C30.5212 25.0722 30.1079 25.7761 29.5279 26.3972L25.0995 31.033C24.4786 31.695 24.3957 32.2331 25.0995 32.8951C26.589 34.4268 27.9965 35.9993 29.486 37.5748C29.7764 37.9044 30.1488 38.1939 30.1079 38.6902Z" fill="#F15C22"/>
<path d="M48.6476 39.9338C48.4257 39.9483 48.2044 39.8974 48.0111 39.7876C47.8177 39.6777 47.6608 39.5137 47.5596 39.3156C47.4585 39.1176 47.4175 38.8943 47.4417 38.6732C47.466 38.4521 47.5545 38.243 47.6962 38.0717C49.8066 35.7123 51.9998 33.392 54.193 31.0765C54.3003 30.9601 54.4319 30.8687 54.5784 30.8088C54.7249 30.7489 54.8828 30.722 55.0409 30.7299C55.199 30.7378 55.3535 30.7803 55.4933 30.8546C55.6331 30.9288 55.7549 31.0328 55.8501 31.1593L62.1402 37.865C62.271 37.969 62.3766 38.1011 62.4492 38.2516C62.5218 38.4021 62.5595 38.5671 62.5595 38.7341C62.5595 38.9012 62.5218 39.0662 62.4492 39.2166C62.3766 39.3671 62.271 39.4993 62.1402 39.6033C62.0123 39.721 61.8606 39.8098 61.6954 39.8637C61.5302 39.9176 61.3553 39.9353 61.1826 39.9157C61.0099 39.8961 60.8435 39.8396 60.6946 39.75C60.5456 39.6605 60.4177 39.54 60.3194 39.3966C58.8709 37.865 57.3814 36.3334 55.9329 34.7608C55.2292 34.0159 54.6911 34.0569 54.0292 34.8017C52.6646 36.2914 51.2151 37.7821 49.8085 39.2718C49.4751 39.6413 49.1447 39.9728 48.6476 39.9338Z" fill="#F15C22"/>
<path d="M58.0418 22.9613C58.0477 23.3579 57.9732 23.7515 57.8228 24.1185C57.6725 24.4855 57.4494 24.8182 57.1671 25.0967C56.8848 25.3752 56.549 25.5936 56.18 25.7388C55.811 25.884 55.4164 25.953 55.0201 25.9417C54.6113 25.9526 54.2044 25.8816 53.8235 25.7327C53.4427 25.5839 53.0954 25.3602 52.8023 25.075C52.5092 24.7897 52.2762 24.4487 52.1171 24.0719C51.9579 23.6952 51.8757 23.2904 51.8755 22.8814C51.8861 22.4736 51.977 22.0719 52.1429 21.6993C52.3088 21.3266 52.5465 20.9903 52.8425 20.7097C53.1384 20.429 53.4867 20.2094 53.8676 20.0634C54.2484 19.9175 54.6543 19.848 55.062 19.859C55.8666 19.8808 56.6304 20.2184 57.188 20.799C57.7457 21.3795 58.0524 22.1563 58.0418 22.9613V22.9613Z" fill="#F15C22"/>
<path d="M52.2475 30.7855L51.7923 30.3711L47.8611 26.1496C47.323 25.5705 47.1573 24.9075 47.8201 24.3284C48.483 23.7493 49.1029 23.956 49.6819 24.5351L53.3646 28.509C53.5712 28.7576 54.0264 28.9643 53.696 29.4196C53.2861 29.9462 52.7976 30.4066 52.2475 30.7845V30.7855Z" fill="#F15C22"/>
<path d="M62.5108 25.2799C62.4706 25.6809 62.278 26.0512 61.9728 26.3143L58.2073 30.371C57.8349 30.7854 57.5863 30.8263 57.135 30.412C55.9351 29.1699 55.8932 29.2118 57.0522 27.9746L60.3664 24.5389C60.5389 24.3089 60.7859 24.146 61.0653 24.0781C61.3446 24.0101 61.6389 24.0414 61.8977 24.1665C62.0993 24.2714 62.2657 24.4332 62.3761 24.6318C62.4865 24.8305 62.536 25.0572 62.5186 25.2838L62.5108 25.2799Z" fill="#F15C22"/>
<path d="M95.1616 25.3626V17.6605C95.1616 17.0814 95.1616 16.5881 95.6997 16.2118C95.8503 16.1056 96.0241 16.0368 96.2067 16.0112C96.3892 15.9856 96.5752 16.004 96.7493 16.0647C96.9233 16.1254 97.0803 16.2268 97.2074 16.3604C97.3344 16.494 97.4277 16.6559 97.4796 16.8328C97.6188 17.2167 97.6753 17.6257 97.6453 18.033V31.3604C97.7332 33.0464 97.3914 34.7271 96.652 36.2448C95.807 37.8573 94.45 39.143 92.7944 39.8998C91.1389 40.6566 89.2789 40.8415 87.5068 40.4254C85.6878 40.0713 84.0471 39.099 82.863 37.6732C81.6789 36.2474 81.0243 34.4559 81.01 32.6025C80.8862 28.6286 81.9204 26.2653 85.1479 24.5729C86.6163 23.7274 88.3047 23.3426 89.9944 23.4681C91.684 23.5936 93.2971 24.2237 94.6245 25.2768C94.7474 25.3626 94.8711 25.5283 95.1616 25.3626ZM89.2438 25.9007C85.7678 25.9007 83.4498 28.3381 83.4089 31.9453C83.368 35.5526 85.7259 38.1128 89.2438 38.1128C92.7618 38.1128 95.1207 35.7125 95.1207 32.0282C95.1207 28.3439 92.8027 25.9007 89.2438 25.9007V25.9007Z" fill="#F15C22"/>
<path d="M113.201 25.5286C113.257 25.3176 113.326 25.1102 113.408 24.9076C113.479 24.611 113.661 24.3529 113.917 24.1857C114.172 24.0186 114.481 23.9549 114.782 24.0077C115.082 24.0605 115.351 24.2257 115.534 24.4699C115.717 24.714 115.8 25.0187 115.767 25.3219V32.6895C115.808 34.6765 116.263 36.4976 117.96 37.7807C118.103 37.8624 118.226 37.9747 118.32 38.1095C118.414 38.2443 118.478 38.3983 118.506 38.5605C118.534 38.7226 118.525 38.889 118.481 39.0476C118.438 39.2062 118.359 39.3532 118.252 39.478C118.16 39.6171 118.039 39.7344 117.898 39.8219C117.756 39.9093 117.597 39.9648 117.431 39.9845C117.266 40.0042 117.098 39.9876 116.94 39.9358C116.781 39.884 116.636 39.7983 116.514 39.6847C115.883 39.2751 115.359 38.7219 114.983 38.0702C114.569 37.3254 114.238 37.3254 113.618 37.9464C112.56 39.1086 111.187 39.9386 109.667 40.3354C108.146 40.7323 106.543 40.679 105.052 40.1819C103.512 39.7801 102.133 38.9126 101.103 37.6978C100.074 36.483 99.4446 34.9802 99.3009 33.3944C98.8457 30.0006 99.6733 26.7716 102.86 24.7857C104.234 23.8513 105.86 23.3551 107.522 23.3624C109.184 23.3697 110.804 23.8802 112.171 24.8266C112.531 25.0376 112.877 25.2728 113.205 25.5305L113.201 25.5286ZM107.411 38.1112C108.199 38.1593 108.988 38.0388 109.725 37.7578C110.463 37.4768 111.132 37.0417 111.688 36.4816C112.244 35.9214 112.674 35.2491 112.95 34.5095C113.226 33.7698 113.341 32.9799 113.287 32.1923C113.287 28.5909 111.094 25.901 107.493 25.901C103.892 25.901 101.658 28.2604 101.658 31.8608C101.658 35.4613 103.893 38.0692 107.411 38.1112Z" fill="#F15C22"/>
<path d="M79.5192 32.1091C79.5192 37.0345 76.126 40.5531 71.2844 40.5911C66.4427 40.6291 62.9248 36.9936 62.9248 31.9405C62.9248 26.8874 66.4008 23.4585 71.2844 23.4585C76.1679 23.4585 79.5192 27.0599 79.5192 32.1091ZM71.2425 25.8958C67.7245 25.8958 65.4075 28.2961 65.3666 31.8976C65.3256 35.499 67.6427 38.106 71.1177 38.106C71.9158 38.1444 72.713 38.0133 73.4568 37.7214C74.2006 37.4294 74.8742 36.9833 75.4332 36.4123C75.9922 35.8413 76.424 35.1584 76.7002 34.4084C76.9763 33.6585 77.0906 32.8586 77.0355 32.0614C77.0365 28.3839 74.7604 25.9417 71.2425 25.8958Z" fill="#F15C22"/>
<path d="M46.9088 32.0672C46.9088 37.0755 43.4737 40.594 38.6321 40.594C33.7904 40.594 30.3553 36.9936 30.3553 31.8605C30.3553 26.7275 33.8733 23.4585 38.673 23.4585C43.4727 23.4585 46.9497 27.018 46.9088 32.0672ZM38.6321 25.8958C35.1141 25.8958 32.7971 28.2961 32.7971 31.9405C32.7971 35.5848 35.0732 38.1079 38.5911 38.1079C42.109 38.1079 44.467 35.7486 44.467 32.0633C44.467 28.378 42.15 25.8958 38.6321 25.8958Z" fill="#F15C22"/>
</svg>
