<svg xmlns="http://www.w3.org/2000/svg" width="20" height="20" viewBox="0 0 20 20">
  <g id="Group_113" data-name="Group 113" transform="translate(-256.49 -65.64)">
    <path id="Path_322" data-name="Path 322" d="M269.769,68.69a1.173,1.173,0,1,0,1.178,1.167A1.18,1.18,0,0,0,269.769,68.69Z" transform="translate(2.019 0.509)" fill="#383e41"/>
    <path id="Path_323" data-name="Path 323" d="M265.834,69.98a4.924,4.924,0,1,0,4.924,4.924A4.925,4.925,0,0,0,265.834,69.98Zm0,8.086a3.151,3.151,0,1,1,3.151-3.151A3.152,3.152,0,0,1,265.834,78.066Z" transform="translate(0.738 0.724)" fill="#383e41"/>
    <path id="Path_324" data-name="Path 324" d="M270.481,85.64H262.5a6.016,6.016,0,0,1-6.009-6.009V71.649A6.016,6.016,0,0,1,262.5,65.64h7.981a6.016,6.016,0,0,1,6.009,6.009v7.981A6.016,6.016,0,0,1,270.481,85.64ZM262.5,67.507a4.138,4.138,0,0,0-4.131,4.131v7.981A4.138,4.138,0,0,0,262.5,83.75h7.981a4.138,4.138,0,0,0,4.131-4.131V71.638a4.138,4.138,0,0,0-4.131-4.131Z" transform="translate(0)" fill="#383e41"/>
  </g>
</svg>
