<svg xmlns="http://www.w3.org/2000/svg" width="15.488" height="20" viewBox="0 0 15.488 20">
  <path id="Path_346" data-name="Path 346" d="M307.155,163.876c-.011.056-.034.1-.045.158-.733,2.876-.812,3.518-1.568,4.86a15.012,15.012,0,0,1-1.218,1.816c-.056.068-.1.147-.2.124s-.124-.124-.135-.214a14.752,14.752,0,0,1-.158-2.639c.034-1.15.18-1.545,1.669-7.781a.418.418,0,0,0-.034-.259,4.4,4.4,0,0,1-.113-2.921c.677-2.131,3.079-2.289,3.507-.53.259,1.083-.429,2.5-.958,4.612-.44,1.737,1.6,2.966,3.349,1.7,1.613-1.162,2.233-3.958,2.109-5.943-.237-3.947-4.567-4.8-7.319-3.53-3.146,1.455-3.868,5.368-2.447,7.15.18.226.316.361.259.6-.09.361-.169.722-.271,1.071a.381.381,0,0,1-.564.248,3.249,3.249,0,0,1-1.319-.981,6.228,6.228,0,0,1,.045-6.958,8.373,8.373,0,0,1,8.063-3.564,6.827,6.827,0,0,1,6.281,5.639,9.414,9.414,0,0,1-1.725,6.608c-2.052,2.537-5.368,2.706-6.9,1.15C307.358,164.158,307.268,164.012,307.155,163.876Z" transform="translate(-300.664 -150.838)" fill="#383e41"/>
</svg>
