<svg xmlns="http://www.w3.org/2000/svg" width="20" height="16.5" viewBox="0 0 20 16.5">
  <path id="Path_345" data-name="Path 345" d="M319.664,69.609a8.241,8.241,0,0,1-2.02.577c.326-.05.8-.64.991-.878a3.8,3.8,0,0,0,.677-1.23c.013-.038.025-.075,0-.1a.118.118,0,0,0-.113.013,10.273,10.273,0,0,1-2.4.916.172.172,0,0,1-.163-.038c-.075-.075-.138-.151-.213-.213a4.1,4.1,0,0,0-2.949-1,4.234,4.234,0,0,0-1.694.477,4.356,4.356,0,0,0-1.368,1.117,4.252,4.252,0,0,0-.815,1.631,4.406,4.406,0,0,0-.038,1.719c.013.1,0,.113-.088.1a12.82,12.82,0,0,1-8.243-4.191c-.1-.113-.151-.113-.226.013a4.187,4.187,0,0,0,.715,4.944c.163.151.326.3.5.452a4.246,4.246,0,0,1-1.593-.452c-.1-.063-.151-.025-.151.088a2.066,2.066,0,0,0,.025.477,4.251,4.251,0,0,0,2.61,3.375,2.563,2.563,0,0,0,.527.163,4.424,4.424,0,0,1-1.556.05c-.113-.025-.163.038-.113.138a4.426,4.426,0,0,0,3.275,2.748c.15.025.3.025.452.063l-.025.025c-.364.565-1.644.979-2.233,1.192a8.034,8.034,0,0,1-3.4.439c-.188-.025-.226-.025-.276,0s-.013.075.05.125a7.919,7.919,0,0,0,.7.414,10.718,10.718,0,0,0,2.271.9,12.106,12.106,0,0,0,11.757-2.748,12.337,12.337,0,0,0,3.25-9c0-.125.151-.2.238-.263a7.739,7.739,0,0,0,1.593-1.669.5.5,0,0,0,.1-.314v-.013C319.752,69.559,319.752,69.571,319.664,69.609Z" transform="translate(-299.741 -67.644)" fill="#383e41"/>
</svg>
